<svg width="472" height="175" viewBox="0 0 472 175" fill="none" xmlns="http://www.w3.org/2000/svg">
<path d="M256.5 108.691V9.80902L335.5 49.309V148.191L256.5 108.691Z" fill="#FBF8F3" fill-opacity="0.8" stroke="#666666"/>
<path fill-rule="evenodd" clip-rule="evenodd" d="M297 50.5725L317.567 61.0213L318.02 60.1297L297 49.4508V50.5725ZM293 48.5403V47.4187L272.433 36.9699L271.98 37.8615L293 48.5403ZM293 54.5448V55.6664L271.98 44.9875L272.433 44.096L293 54.5448ZM297 57.6986V56.5769L318.02 67.2558L317.567 68.1474L297 57.6986ZM293 61.6709L272.433 51.2221L271.98 52.1136L293 62.7925V61.6709ZM297 64.8247V63.703L318.02 74.3819L317.567 75.2735L297 64.8247ZM293 68.7971L272.433 58.3482L271.98 59.2398L293 69.9187V68.7971ZM297 71.9508V70.8292L318.02 81.5081L317.567 82.3996L297 71.9508ZM293 75.9231L272.433 65.4743L271.98 66.3658L293 77.0447V75.9231ZM297 79.0769V77.9552L318.02 88.6341L317.567 89.5257L297 79.0769ZM293 83.0493L272.433 72.6004L271.98 73.492L293 84.1709V83.0493ZM297 86.203V85.0814L318.02 95.7603L317.567 96.6518L297 86.203ZM293 90.1754L272.433 79.7265L271.98 80.6181L293 91.297V90.1754ZM297 93.3291V92.2075L318.02 102.886L317.567 103.778L297 93.3291ZM293 97.3014L272.433 86.8526L271.98 87.7441L293 98.4231V97.3014ZM297 100.455V99.3336L318.02 110.012L317.567 110.904L297 100.455ZM293 104.428L272.433 93.9787L271.98 94.8702L293 105.549V104.428ZM297 107.581V106.46L318.02 117.139L317.567 118.03L297 107.581Z" fill="#666666"/>
<g opacity="0.8">
<path d="M320.5 57.5C320.5 55.8431 321.843 54.5 323.5 54.5C325.157 54.5 326.5 55.8431 326.5 57.5C326.5 59.1569 325.157 60.5 323.5 60.5C321.843 60.5 320.5 59.1569 320.5 57.5Z" stroke="#666666"/>
<path d="M366.5 79.5C366.5 78.9477 366.948 78.5 367.5 78.5C368.052 78.5 368.5 78.9477 368.5 79.5C368.5 80.0523 368.052 80.5 367.5 80.5C366.948 80.5 366.5 80.0523 366.5 79.5Z" fill="#666666" stroke="#666666"/>
<path d="M326 59L353.243 72.5L368 80" stroke="#666666"/>
<path d="M375.107 75.2773H379.975V76.583H378.286V82.7148H380.05V84H375.025V82.7012H376.714V76.583H375.107V75.2773ZM387.275 83.2139C387.275 83.3278 387.287 83.4531 387.31 83.5898C387.332 83.722 387.362 83.8587 387.398 84H385.915C385.856 83.959 385.817 83.8975 385.799 83.8154C385.781 83.7334 385.771 83.6605 385.771 83.5967V83.3984C385.699 83.5306 385.601 83.6468 385.478 83.7471C385.359 83.8473 385.229 83.9316 385.088 84C384.947 84.0684 384.799 84.1208 384.644 84.1572C384.493 84.1937 384.347 84.2119 384.206 84.2119C383.823 84.2119 383.463 84.1413 383.126 84C382.789 83.8633 382.493 83.6559 382.237 83.3779C381.987 83.0954 381.786 82.7445 381.636 82.3252C381.49 81.9014 381.417 81.4046 381.417 80.835C381.417 80.2835 381.492 79.7913 381.643 79.3584C381.793 78.9209 381.996 78.5518 382.251 78.251C382.506 77.9502 382.8 77.7201 383.133 77.5605C383.47 77.401 383.823 77.3213 384.192 77.3213C384.32 77.3213 384.452 77.3372 384.589 77.3691C384.726 77.401 384.86 77.4466 384.992 77.5059C385.129 77.5605 385.257 77.6289 385.375 77.7109C385.498 77.793 385.607 77.8818 385.703 77.9775V74.5527H387.467C387.467 74.6029 387.458 74.6439 387.439 74.6758C387.421 74.7077 387.401 74.7373 387.378 74.7646C387.36 74.792 387.339 74.8216 387.316 74.8535C387.294 74.8809 387.28 74.915 387.275 74.9561V83.2139ZM385.717 80.6572C385.717 80.3838 385.699 80.124 385.662 79.8779C385.626 79.6273 385.562 79.4062 385.471 79.2148C385.38 79.0234 385.252 78.873 385.088 78.7637C384.928 78.6497 384.723 78.5928 384.473 78.5928C384.254 78.5928 384.072 78.6292 383.926 78.7021C383.785 78.7705 383.65 78.8753 383.522 79.0166C383.176 79.3857 383.003 79.9827 383.003 80.8076C383.003 81.1995 383.046 81.5299 383.133 81.7988C383.224 82.0632 383.34 82.2773 383.481 82.4414C383.623 82.6055 383.775 82.724 383.939 82.7969C384.108 82.8698 384.272 82.9062 384.432 82.9062C384.628 82.9062 384.803 82.8652 384.958 82.7832C385.118 82.7012 385.252 82.5713 385.361 82.3936C385.475 82.2113 385.562 81.9788 385.621 81.6963C385.685 81.4092 385.717 81.0628 385.717 80.6572ZM391.609 77.3213C391.997 77.3213 392.359 77.3896 392.696 77.5264C393.034 77.6631 393.327 77.8659 393.578 78.1348C393.833 78.3991 394.034 78.7318 394.18 79.1328C394.326 79.5293 394.398 79.9896 394.398 80.5137C394.398 80.6276 394.394 80.7393 394.385 80.8486C394.376 80.958 394.367 81.0651 394.357 81.1699H390.071C390.108 81.4844 390.181 81.7555 390.29 81.9834C390.399 82.2067 390.532 82.3936 390.687 82.5439C390.841 82.6898 391.012 82.7992 391.199 82.8721C391.391 82.9404 391.584 82.9746 391.78 82.9746C392.076 82.9746 392.366 82.9085 392.648 82.7764C392.936 82.6396 393.182 82.4414 393.387 82.1816L394.255 83.0498C393.594 83.8337 392.769 84.2256 391.78 84.2256C391.311 84.2256 390.876 84.1481 390.475 83.9932C390.078 83.8382 389.734 83.6149 389.442 83.3232C389.155 83.0316 388.93 82.6761 388.766 82.2568C388.602 81.833 388.52 81.3545 388.52 80.8213C388.52 80.279 388.597 79.7913 388.752 79.3584C388.907 78.9255 389.121 78.5586 389.395 78.2578C389.673 77.957 389.998 77.7269 390.372 77.5674C390.75 77.4033 391.163 77.3213 391.609 77.3213ZM392.833 80.0215C392.833 79.8164 392.801 79.6227 392.737 79.4404C392.678 79.2536 392.591 79.0918 392.478 78.9551C392.368 78.8138 392.231 78.7021 392.067 78.6201C391.908 78.5381 391.728 78.4971 391.527 78.4971C391.336 78.4971 391.158 78.5335 390.994 78.6064C390.835 78.6794 390.693 78.7819 390.57 78.9141C390.452 79.0462 390.354 79.2057 390.276 79.3926C390.203 79.5794 390.153 79.7891 390.126 80.0215H392.833ZM396.053 78.3877C396.727 77.6768 397.552 77.3213 398.527 77.3213C398.942 77.3213 399.313 77.3737 399.642 77.4785C399.97 77.5833 400.248 77.7474 400.476 77.9707C400.703 78.1895 400.879 78.4697 401.002 78.8115C401.125 79.1488 401.187 79.5521 401.187 80.0215V84H399.689V83.4121C399.443 83.6445 399.149 83.8291 398.808 83.9658C398.47 84.1025 398.131 84.1709 397.789 84.1709C397.406 84.1709 397.074 84.1185 396.791 84.0137C396.513 83.9134 396.283 83.7767 396.101 83.6035C395.918 83.4303 395.782 83.2275 395.69 82.9951C395.604 82.7627 395.561 82.5189 395.561 82.2637C395.561 81.9264 395.631 81.6188 395.772 81.3408C395.918 81.0583 396.13 80.8167 396.408 80.6162C396.686 80.4111 397.028 80.2516 397.434 80.1377C397.844 80.0238 398.315 79.9668 398.849 79.9668H399.676C399.667 79.4701 399.566 79.11 399.375 78.8867C399.184 78.6634 398.883 78.5518 398.473 78.5518C397.939 78.5518 397.397 78.8411 396.846 79.4199L396.053 78.3877ZM399.143 81.1426C398.732 81.1335 398.395 81.1585 398.131 81.2178C397.867 81.2725 397.659 81.3499 397.509 81.4502C397.358 81.5505 397.254 81.6667 397.194 81.7988C397.14 81.9264 397.112 82.054 397.112 82.1816C397.112 82.291 397.137 82.3936 397.188 82.4893C397.238 82.585 397.306 82.6693 397.393 82.7422C397.479 82.8105 397.579 82.8675 397.693 82.9131C397.812 82.9541 397.937 82.9746 398.069 82.9746C398.284 82.9746 398.475 82.9382 398.644 82.8652C398.817 82.7878 398.967 82.6966 399.095 82.5918C399.222 82.487 399.329 82.3776 399.416 82.2637C399.503 82.1497 399.566 82.0518 399.607 81.9697C399.644 81.9014 399.671 81.8011 399.689 81.6689C399.708 81.5322 399.717 81.3613 399.717 81.1562L399.143 81.1426ZM407.462 79.5908C407.425 79.5908 407.396 79.5817 407.373 79.5635C407.355 79.5407 407.339 79.5156 407.325 79.4883C407.316 79.4564 407.307 79.4245 407.298 79.3926C407.289 79.3561 407.277 79.3242 407.264 79.2969C407.182 79.1966 407.079 79.1009 406.956 79.0098C406.833 78.9141 406.696 78.832 406.546 78.7637C406.4 78.6953 406.243 78.6406 406.074 78.5996C405.91 78.5586 405.746 78.5381 405.582 78.5381C405.441 78.5381 405.306 78.5495 405.179 78.5723C405.051 78.5905 404.937 78.6224 404.837 78.668C404.741 78.7135 404.664 78.7728 404.604 78.8457C404.55 78.9186 404.522 79.0075 404.522 79.1123C404.522 79.2308 404.552 79.3311 404.611 79.4131C404.675 79.4906 404.769 79.5635 404.892 79.6318C405.015 79.6956 405.17 79.7572 405.356 79.8164C405.543 79.8757 405.764 79.9395 406.02 80.0078C406.799 80.2266 407.371 80.5068 407.735 80.8486C408.104 81.1904 408.289 81.5824 408.289 82.0244C408.289 82.3206 408.223 82.6009 408.091 82.8652C407.959 83.1296 407.772 83.3643 407.53 83.5693C407.289 83.7699 406.995 83.9294 406.648 84.0479C406.307 84.1663 405.924 84.2256 405.5 84.2256C404.949 84.2256 404.438 84.139 403.969 83.9658C403.504 83.7881 403.066 83.5055 402.656 83.1182L403.47 81.6484C403.524 81.6576 403.565 81.6917 403.593 81.751C403.62 81.8057 403.654 81.8831 403.695 81.9834C403.768 82.1019 403.873 82.2181 404.01 82.332C404.146 82.4414 404.299 82.5417 404.468 82.6328C404.636 82.724 404.812 82.7969 404.994 82.8516C405.181 82.9062 405.359 82.9336 405.527 82.9336C405.901 82.9336 406.19 82.8812 406.396 82.7764C406.601 82.667 406.703 82.5052 406.703 82.291C406.703 82.1816 406.68 82.0859 406.635 82.0039C406.589 81.9219 406.516 81.8467 406.416 81.7783C406.32 81.7054 406.193 81.6393 406.033 81.5801C405.874 81.5163 405.678 81.4502 405.445 81.3818C405.318 81.3454 405.19 81.3089 405.062 81.2725C404.939 81.236 404.814 81.1927 404.687 81.1426C404.431 81.0469 404.203 80.9398 404.003 80.8213C403.802 80.6982 403.632 80.5615 403.49 80.4111C403.354 80.2607 403.249 80.0921 403.176 79.9053C403.103 79.7139 403.066 79.502 403.066 79.2695C403.066 79.0371 403.13 78.8047 403.258 78.5723C403.39 78.3398 403.57 78.1325 403.798 77.9502C404.026 77.7633 404.297 77.613 404.611 77.499C404.93 77.3805 405.279 77.3213 405.657 77.3213C406.154 77.3213 406.614 77.4102 407.038 77.5879C407.466 77.7656 407.858 78.055 408.214 78.4561L407.462 79.5908ZM421.448 80.3633C421.453 80.3086 421.455 80.2516 421.455 80.1924C421.455 80.1331 421.457 80.0762 421.462 80.0215C421.471 79.9668 421.485 79.9144 421.503 79.8643C421.526 79.8141 421.562 79.7686 421.612 79.7275L422.877 80.6094C422.699 80.9102 422.524 81.1973 422.351 81.4707C422.182 81.7396 422.025 81.9811 421.879 82.1953C421.947 82.291 422.022 82.3913 422.104 82.4961C422.187 82.6009 422.269 82.708 422.351 82.8174C422.433 82.9222 422.512 83.027 422.59 83.1318C422.672 83.2367 422.747 83.3346 422.815 83.4258L421.64 84.2939L420.956 83.2139C420.815 83.3551 420.66 83.4873 420.491 83.6104C420.323 83.7334 420.145 83.8405 419.958 83.9316C419.771 84.0228 419.577 84.0934 419.377 84.1436C419.176 84.1982 418.976 84.2256 418.775 84.2256C418.388 84.2256 418.046 84.1663 417.75 84.0479C417.458 83.9294 417.212 83.7676 417.012 83.5625C416.816 83.3574 416.668 83.1136 416.567 82.8311C416.467 82.5485 416.417 82.2432 416.417 81.915C416.417 81.6462 416.46 81.3773 416.547 81.1084C416.638 80.8395 416.761 80.5866 416.916 80.3496C417.071 80.1081 417.253 79.887 417.463 79.6865C417.677 79.4814 417.907 79.3083 418.153 79.167C417.83 78.8115 417.586 78.4561 417.422 78.1006C417.258 77.7406 417.176 77.4056 417.176 77.0957C417.176 76.8223 417.23 76.5671 417.34 76.3301C417.449 76.0885 417.597 75.8812 417.784 75.708C417.971 75.5303 418.19 75.3913 418.44 75.291C418.696 75.1908 418.965 75.1406 419.247 75.1406C419.552 75.1406 419.828 75.1976 420.074 75.3115C420.325 75.4209 420.539 75.5667 420.717 75.749C420.895 75.9313 421.031 76.141 421.127 76.3779C421.227 76.6104 421.277 76.8496 421.277 77.0957C421.277 77.3145 421.243 77.5355 421.175 77.7588C421.111 77.9821 421.018 78.1986 420.895 78.4082C420.776 78.6133 420.63 78.8024 420.457 78.9756C420.288 79.1488 420.099 79.2923 419.89 79.4062L421.079 81.1152C421.166 81.0013 421.239 80.8783 421.298 80.7461C421.362 80.6139 421.412 80.4863 421.448 80.3633ZM418.604 77.1094C418.604 77.2871 418.652 77.4876 418.748 77.7109C418.844 77.9342 419.001 78.1872 419.22 78.4697C419.334 78.4014 419.432 78.3171 419.514 78.2168C419.6 78.1165 419.671 78.0094 419.726 77.8955C419.78 77.777 419.821 77.6562 419.849 77.5332C419.876 77.4102 419.89 77.2894 419.89 77.1709C419.89 77.0524 419.876 76.9408 419.849 76.8359C419.821 76.7311 419.78 76.64 419.726 76.5625C419.671 76.4805 419.605 76.4167 419.527 76.3711C419.45 76.3255 419.361 76.3027 419.261 76.3027C419.042 76.3027 418.878 76.3802 418.769 76.5352C418.659 76.6855 418.604 76.877 418.604 77.1094ZM418.775 80.1514C418.625 80.2471 418.495 80.3587 418.386 80.4863C418.281 80.6094 418.197 80.7438 418.133 80.8896C418.069 81.0309 418.021 81.1768 417.989 81.3271C417.962 81.473 417.948 81.6165 417.948 81.7578C417.948 81.9128 417.973 82.0654 418.023 82.2158C418.074 82.3617 418.144 82.4938 418.235 82.6123C418.326 82.7262 418.434 82.8197 418.557 82.8926C418.684 82.9609 418.821 82.9951 418.967 82.9951C419.227 82.9951 419.459 82.9176 419.664 82.7627C419.874 82.6077 420.051 82.4186 420.197 82.1953L418.775 80.1514ZM430.28 75.2773H436.706V76.6377H434.245V84H432.646V76.6377H430.28V75.2773ZM437.841 84V74.5527H439.618C439.618 74.6074 439.609 74.6507 439.591 74.6826C439.573 74.7145 439.552 74.7441 439.529 74.7715C439.507 74.7943 439.484 74.8193 439.461 74.8467C439.438 74.874 439.424 74.9105 439.42 74.9561V78.1348C439.648 77.8887 439.912 77.6927 440.213 77.5469C440.514 77.3965 440.819 77.3213 441.129 77.3213C441.462 77.3213 441.762 77.3714 442.031 77.4717C442.3 77.5719 442.528 77.7314 442.715 77.9502C442.902 78.1644 443.045 78.4447 443.146 78.791C443.25 79.1328 443.303 79.5475 443.303 80.0352V84H441.758V80.0488C441.758 79.7982 441.735 79.5817 441.689 79.3994C441.644 79.2171 441.58 79.069 441.498 78.9551C441.416 78.8366 441.318 78.75 441.204 78.6953C441.09 78.6406 440.963 78.6133 440.821 78.6133C440.625 78.6133 440.441 78.652 440.268 78.7295C440.099 78.807 439.951 78.9163 439.823 79.0576C439.7 79.1989 439.602 79.3698 439.529 79.5703C439.456 79.7663 439.42 79.9827 439.42 80.2197V84H437.841ZM447.609 77.3213C447.997 77.3213 448.359 77.3896 448.696 77.5264C449.034 77.6631 449.327 77.8659 449.578 78.1348C449.833 78.3991 450.034 78.7318 450.18 79.1328C450.326 79.5293 450.398 79.9896 450.398 80.5137C450.398 80.6276 450.394 80.7393 450.385 80.8486C450.376 80.958 450.367 81.0651 450.357 81.1699H446.071C446.108 81.4844 446.181 81.7555 446.29 81.9834C446.399 82.2067 446.532 82.3936 446.687 82.5439C446.841 82.6898 447.012 82.7992 447.199 82.8721C447.391 82.9404 447.584 82.9746 447.78 82.9746C448.076 82.9746 448.366 82.9085 448.648 82.7764C448.936 82.6396 449.182 82.4414 449.387 82.1816L450.255 83.0498C449.594 83.8337 448.769 84.2256 447.78 84.2256C447.311 84.2256 446.876 84.1481 446.475 83.9932C446.078 83.8382 445.734 83.6149 445.442 83.3232C445.155 83.0316 444.93 82.6761 444.766 82.2568C444.602 81.833 444.52 81.3545 444.52 80.8213C444.52 80.279 444.597 79.7913 444.752 79.3584C444.907 78.9255 445.121 78.5586 445.395 78.2578C445.673 77.957 445.998 77.7269 446.372 77.5674C446.75 77.4033 447.163 77.3213 447.609 77.3213ZM448.833 80.0215C448.833 79.8164 448.801 79.6227 448.737 79.4404C448.678 79.2536 448.591 79.0918 448.478 78.9551C448.368 78.8138 448.231 78.7021 448.067 78.6201C447.908 78.5381 447.728 78.4971 447.527 78.4971C447.336 78.4971 447.158 78.5335 446.994 78.6064C446.835 78.6794 446.693 78.7819 446.57 78.9141C446.452 79.0462 446.354 79.2057 446.276 79.3926C446.203 79.5794 446.153 79.7891 446.126 80.0215H448.833ZM454.555 77.3213C454.979 77.3213 455.375 77.3988 455.744 77.5537C456.113 77.7087 456.435 77.9342 456.708 78.2305C456.986 78.5221 457.202 78.8822 457.357 79.3105C457.517 79.7389 457.597 80.2243 457.597 80.7666C457.597 81.3089 457.519 81.7943 457.364 82.2227C457.209 82.651 456.995 83.0133 456.722 83.3096C456.453 83.6058 456.132 83.8337 455.758 83.9932C455.384 84.1481 454.979 84.2256 454.541 84.2256C454.104 84.2256 453.693 84.1413 453.311 83.9727C452.932 83.804 452.6 83.5671 452.312 83.2617C452.03 82.9564 451.807 82.5941 451.643 82.1748C451.483 81.7555 451.403 81.2952 451.403 80.7939C451.403 80.2972 451.485 79.8369 451.649 79.4131C451.818 78.9893 452.046 78.6224 452.333 78.3125C452.62 78.0026 452.953 77.7611 453.331 77.5879C453.714 77.4102 454.122 77.3213 454.555 77.3213ZM456.038 80.7939C456.038 80.4385 455.999 80.124 455.922 79.8506C455.849 79.5771 455.744 79.347 455.607 79.1602C455.471 78.9688 455.309 78.8252 455.122 78.7295C454.935 78.6292 454.732 78.5791 454.514 78.5791C454.29 78.5791 454.085 78.6292 453.898 78.7295C453.716 78.8252 453.559 78.9665 453.427 79.1533C453.299 79.3402 453.199 79.568 453.126 79.8369C453.053 80.1012 453.017 80.402 453.017 80.7393C453.017 81.0765 453.051 81.3818 453.119 81.6553C453.192 81.9242 453.295 82.1543 453.427 82.3457C453.559 82.5371 453.718 82.6852 453.905 82.79C454.097 82.8949 454.309 82.9473 454.541 82.9473C454.997 82.9473 455.359 82.7627 455.628 82.3936C455.901 82.0244 456.038 81.4912 456.038 80.7939ZM459.244 77.4648H460.857V78.1758C460.962 78.0573 461.081 77.9456 461.213 77.8408C461.345 77.736 461.486 77.6449 461.637 77.5674C461.787 77.4899 461.944 77.4307 462.108 77.3896C462.277 77.3441 462.448 77.3213 462.621 77.3213C462.99 77.3213 463.341 77.3805 463.674 77.499C464.011 77.613 464.31 77.793 464.569 78.0391L463.838 79.5635C463.61 79.249 463.391 79.0189 463.182 78.873C462.972 78.7272 462.762 78.6543 462.553 78.6543C462.311 78.6543 462.086 78.7067 461.876 78.8115C461.671 78.9118 461.489 79.0508 461.329 79.2285C461.174 79.4017 461.051 79.6068 460.96 79.8438C460.873 80.0762 460.83 80.3223 460.83 80.582V84H459.244V77.4648ZM469.033 84.7109C468.915 85.0254 468.778 85.2943 468.623 85.5176C468.468 85.7409 468.299 85.9232 468.117 86.0645C467.935 86.2057 467.739 86.3083 467.529 86.3721C467.324 86.4404 467.11 86.4746 466.887 86.4746C466.244 86.4746 465.668 86.2285 465.157 85.7363L465.937 84.3896C465.991 84.417 466.03 84.4466 466.053 84.4785C466.076 84.5104 466.094 84.5469 466.107 84.5879C466.121 84.6289 466.135 84.6722 466.148 84.7178C466.162 84.7633 466.185 84.8135 466.217 84.8682C466.281 84.9821 466.358 85.0664 466.449 85.1211C466.545 85.1758 466.663 85.2031 466.805 85.2031C466.905 85.2031 467.001 85.1826 467.092 85.1416C467.183 85.1006 467.272 85.0299 467.358 84.9297C467.45 84.8294 467.538 84.6973 467.625 84.5332C467.712 84.3691 467.798 84.1641 467.885 83.918L465.431 77.4648H467.352C467.352 77.515 467.347 77.5583 467.338 77.5947C467.329 77.6266 467.317 77.6585 467.304 77.6904C467.29 77.7223 467.279 77.7565 467.27 77.793C467.26 77.8249 467.256 77.8636 467.256 77.9092L468.712 81.9697L469.341 80.2471C469.427 80.0146 469.509 79.7754 469.587 79.5293C469.669 79.2832 469.744 79.0394 469.812 78.7979C469.881 78.5563 469.942 78.3239 469.997 78.1006C470.052 77.8727 470.1 77.6608 470.141 77.4648H471.638C471.524 77.9342 471.382 78.4219 471.214 78.9277C471.045 79.429 470.858 79.9395 470.653 80.459L469.033 84.7109Z" fill="#666666"/>
</g>
<path d="M196.5 113.691V14.809L275.5 54.309V153.191L196.5 113.691Z" fill="#FBF8F3" fill-opacity="0.8" stroke="#666666"/>
<path d="M218 44.5699C218 43.0784 219.574 42.1116 220.904 42.786L250.487 57.7798C252.335 58.7167 253.5 60.6132 253.5 62.6856V122.93C253.5 124.422 251.926 125.388 250.596 124.714L221.013 109.72C219.165 108.783 218 106.887 218 104.814V44.5699Z" stroke="#666666"/>
<path d="M218 98.1929V51.314L253.5 69.3071V116.186L218 98.1929Z" stroke="#666666"/>
<path d="M233.75 109.368C233.75 108.996 234.141 108.755 234.474 108.921L236.921 110.144C237.429 110.399 237.75 110.918 237.75 111.486V114.403C237.75 114.775 237.359 115.017 237.027 114.851L234.58 113.63C234.071 113.376 233.75 112.856 233.75 112.287V109.368Z" stroke="#666666"/>
<path d="M231 53L240 57.7293" stroke="#666666"/>
<g opacity="0.8">
<path d="M261.5 133.5C261.5 131.843 262.843 130.5 264.5 130.5C266.157 130.5 267.5 131.843 267.5 133.5C267.5 135.157 266.157 136.5 264.5 136.5C262.843 136.5 261.5 135.157 261.5 133.5Z" stroke="#666666"/>
<path d="M322.5 163.5C322.5 162.948 322.948 162.5 323.5 162.5C324.052 162.5 324.5 162.948 324.5 163.5C324.5 164.052 324.052 164.5 323.5 164.5C322.948 164.5 322.5 164.052 322.5 163.5Z" fill="#666666" stroke="#666666"/>
<path d="M267 135L303 153L322.5 163" stroke="#666666"/>
<path d="M328.28 158.277H334.706V159.638H332.245V167H330.646V159.638H328.28V158.277ZM338.555 160.321C338.979 160.321 339.375 160.399 339.744 160.554C340.113 160.709 340.435 160.934 340.708 161.23C340.986 161.522 341.202 161.882 341.357 162.311C341.517 162.739 341.597 163.224 341.597 163.767C341.597 164.309 341.519 164.794 341.364 165.223C341.209 165.651 340.995 166.013 340.722 166.31C340.453 166.606 340.132 166.834 339.758 166.993C339.384 167.148 338.979 167.226 338.541 167.226C338.104 167.226 337.693 167.141 337.311 166.973C336.932 166.804 336.6 166.567 336.312 166.262C336.03 165.956 335.807 165.594 335.643 165.175C335.483 164.756 335.403 164.295 335.403 163.794C335.403 163.297 335.485 162.837 335.649 162.413C335.818 161.989 336.046 161.622 336.333 161.312C336.62 161.003 336.953 160.761 337.331 160.588C337.714 160.41 338.122 160.321 338.555 160.321ZM340.038 163.794C340.038 163.438 339.999 163.124 339.922 162.851C339.849 162.577 339.744 162.347 339.607 162.16C339.471 161.969 339.309 161.825 339.122 161.729C338.935 161.629 338.732 161.579 338.514 161.579C338.29 161.579 338.085 161.629 337.898 161.729C337.716 161.825 337.559 161.966 337.427 162.153C337.299 162.34 337.199 162.568 337.126 162.837C337.053 163.101 337.017 163.402 337.017 163.739C337.017 164.076 337.051 164.382 337.119 164.655C337.192 164.924 337.295 165.154 337.427 165.346C337.559 165.537 337.718 165.685 337.905 165.79C338.097 165.895 338.309 165.947 338.541 165.947C338.997 165.947 339.359 165.763 339.628 165.394C339.901 165.024 340.038 164.491 340.038 163.794ZM345.555 160.321C345.979 160.321 346.375 160.399 346.744 160.554C347.113 160.709 347.435 160.934 347.708 161.23C347.986 161.522 348.202 161.882 348.357 162.311C348.517 162.739 348.597 163.224 348.597 163.767C348.597 164.309 348.519 164.794 348.364 165.223C348.209 165.651 347.995 166.013 347.722 166.31C347.453 166.606 347.132 166.834 346.758 166.993C346.384 167.148 345.979 167.226 345.541 167.226C345.104 167.226 344.693 167.141 344.311 166.973C343.932 166.804 343.6 166.567 343.312 166.262C343.03 165.956 342.807 165.594 342.643 165.175C342.483 164.756 342.403 164.295 342.403 163.794C342.403 163.297 342.485 162.837 342.649 162.413C342.818 161.989 343.046 161.622 343.333 161.312C343.62 161.003 343.953 160.761 344.331 160.588C344.714 160.41 345.122 160.321 345.555 160.321ZM347.038 163.794C347.038 163.438 346.999 163.124 346.922 162.851C346.849 162.577 346.744 162.347 346.607 162.16C346.471 161.969 346.309 161.825 346.122 161.729C345.935 161.629 345.732 161.579 345.514 161.579C345.29 161.579 345.085 161.629 344.898 161.729C344.716 161.825 344.559 161.966 344.427 162.153C344.299 162.34 344.199 162.568 344.126 162.837C344.053 163.101 344.017 163.402 344.017 163.739C344.017 164.076 344.051 164.382 344.119 164.655C344.192 164.924 344.295 165.154 344.427 165.346C344.559 165.537 344.718 165.685 344.905 165.79C345.097 165.895 345.309 165.947 345.541 165.947C345.997 165.947 346.359 165.763 346.628 165.394C346.901 165.024 347.038 164.491 347.038 163.794ZM350.025 157.553H353.3V165.783H355.091V167H349.937V165.783H351.728V158.77H350.025V157.553ZM361.462 162.591C361.425 162.591 361.396 162.582 361.373 162.563C361.355 162.541 361.339 162.516 361.325 162.488C361.316 162.456 361.307 162.424 361.298 162.393C361.289 162.356 361.277 162.324 361.264 162.297C361.182 162.197 361.079 162.101 360.956 162.01C360.833 161.914 360.696 161.832 360.546 161.764C360.4 161.695 360.243 161.641 360.074 161.6C359.91 161.559 359.746 161.538 359.582 161.538C359.441 161.538 359.306 161.549 359.179 161.572C359.051 161.59 358.937 161.622 358.837 161.668C358.741 161.714 358.664 161.773 358.604 161.846C358.55 161.919 358.522 162.007 358.522 162.112C358.522 162.231 358.552 162.331 358.611 162.413C358.675 162.491 358.769 162.563 358.892 162.632C359.015 162.696 359.17 162.757 359.356 162.816C359.543 162.876 359.764 162.939 360.02 163.008C360.799 163.227 361.371 163.507 361.735 163.849C362.104 164.19 362.289 164.582 362.289 165.024C362.289 165.321 362.223 165.601 362.091 165.865C361.959 166.13 361.772 166.364 361.53 166.569C361.289 166.77 360.995 166.929 360.648 167.048C360.307 167.166 359.924 167.226 359.5 167.226C358.949 167.226 358.438 167.139 357.969 166.966C357.504 166.788 357.066 166.506 356.656 166.118L357.47 164.648C357.524 164.658 357.565 164.692 357.593 164.751C357.62 164.806 357.654 164.883 357.695 164.983C357.768 165.102 357.873 165.218 358.01 165.332C358.146 165.441 358.299 165.542 358.468 165.633C358.636 165.724 358.812 165.797 358.994 165.852C359.181 165.906 359.359 165.934 359.527 165.934C359.901 165.934 360.19 165.881 360.396 165.776C360.601 165.667 360.703 165.505 360.703 165.291C360.703 165.182 360.68 165.086 360.635 165.004C360.589 164.922 360.516 164.847 360.416 164.778C360.32 164.705 360.193 164.639 360.033 164.58C359.874 164.516 359.678 164.45 359.445 164.382C359.318 164.345 359.19 164.309 359.062 164.272C358.939 164.236 358.814 164.193 358.687 164.143C358.431 164.047 358.203 163.94 358.003 163.821C357.802 163.698 357.632 163.562 357.49 163.411C357.354 163.261 357.249 163.092 357.176 162.905C357.103 162.714 357.066 162.502 357.066 162.27C357.066 162.037 357.13 161.805 357.258 161.572C357.39 161.34 357.57 161.132 357.798 160.95C358.026 160.763 358.297 160.613 358.611 160.499C358.93 160.381 359.279 160.321 359.657 160.321C360.154 160.321 360.614 160.41 361.038 160.588C361.466 160.766 361.858 161.055 362.214 161.456L361.462 162.591ZM375.448 163.363C375.453 163.309 375.455 163.252 375.455 163.192C375.455 163.133 375.457 163.076 375.462 163.021C375.471 162.967 375.485 162.914 375.503 162.864C375.526 162.814 375.562 162.769 375.612 162.728L376.877 163.609C376.699 163.91 376.524 164.197 376.351 164.471C376.182 164.74 376.025 164.981 375.879 165.195C375.947 165.291 376.022 165.391 376.104 165.496C376.187 165.601 376.269 165.708 376.351 165.817C376.433 165.922 376.512 166.027 376.59 166.132C376.672 166.237 376.747 166.335 376.815 166.426L375.64 167.294L374.956 166.214C374.815 166.355 374.66 166.487 374.491 166.61C374.323 166.733 374.145 166.84 373.958 166.932C373.771 167.023 373.577 167.093 373.377 167.144C373.176 167.198 372.976 167.226 372.775 167.226C372.388 167.226 372.046 167.166 371.75 167.048C371.458 166.929 371.212 166.768 371.012 166.562C370.816 166.357 370.668 166.114 370.567 165.831C370.467 165.549 370.417 165.243 370.417 164.915C370.417 164.646 370.46 164.377 370.547 164.108C370.638 163.84 370.761 163.587 370.916 163.35C371.071 163.108 371.253 162.887 371.463 162.687C371.677 162.481 371.907 162.308 372.153 162.167C371.83 161.812 371.586 161.456 371.422 161.101C371.258 160.741 371.176 160.406 371.176 160.096C371.176 159.822 371.23 159.567 371.34 159.33C371.449 159.089 371.597 158.881 371.784 158.708C371.971 158.53 372.19 158.391 372.44 158.291C372.696 158.191 372.965 158.141 373.247 158.141C373.552 158.141 373.828 158.198 374.074 158.312C374.325 158.421 374.539 158.567 374.717 158.749C374.895 158.931 375.031 159.141 375.127 159.378C375.227 159.61 375.277 159.85 375.277 160.096C375.277 160.314 375.243 160.535 375.175 160.759C375.111 160.982 375.018 161.199 374.895 161.408C374.776 161.613 374.63 161.802 374.457 161.976C374.288 162.149 374.099 162.292 373.89 162.406L375.079 164.115C375.166 164.001 375.239 163.878 375.298 163.746C375.362 163.614 375.412 163.486 375.448 163.363ZM372.604 160.109C372.604 160.287 372.652 160.488 372.748 160.711C372.844 160.934 373.001 161.187 373.22 161.47C373.334 161.401 373.432 161.317 373.514 161.217C373.6 161.117 373.671 161.009 373.726 160.896C373.78 160.777 373.821 160.656 373.849 160.533C373.876 160.41 373.89 160.289 373.89 160.171C373.89 160.052 373.876 159.941 373.849 159.836C373.821 159.731 373.78 159.64 373.726 159.562C373.671 159.48 373.605 159.417 373.527 159.371C373.45 159.326 373.361 159.303 373.261 159.303C373.042 159.303 372.878 159.38 372.769 159.535C372.659 159.686 372.604 159.877 372.604 160.109ZM372.775 163.151C372.625 163.247 372.495 163.359 372.386 163.486C372.281 163.609 372.197 163.744 372.133 163.89C372.069 164.031 372.021 164.177 371.989 164.327C371.962 164.473 371.948 164.617 371.948 164.758C371.948 164.913 371.973 165.065 372.023 165.216C372.074 165.362 372.144 165.494 372.235 165.612C372.326 165.726 372.434 165.82 372.557 165.893C372.684 165.961 372.821 165.995 372.967 165.995C373.227 165.995 373.459 165.918 373.664 165.763C373.874 165.608 374.051 165.419 374.197 165.195L372.775 163.151ZM390.398 167H388.785V163.097H386.215V167H384.602V158.277H386.311C386.329 158.296 386.338 158.318 386.338 158.346C386.338 158.364 386.331 158.384 386.317 158.407C386.308 158.425 386.297 158.451 386.283 158.482C386.27 158.514 386.256 158.553 386.242 158.599C386.229 158.644 386.219 158.701 386.215 158.77V161.791H388.785V158.277H390.494C390.512 158.296 390.521 158.318 390.521 158.346C390.521 158.364 390.515 158.384 390.501 158.407C390.492 158.425 390.48 158.451 390.467 158.482C390.453 158.514 390.439 158.553 390.426 158.599C390.412 158.644 390.403 158.701 390.398 158.77V167ZM394.555 160.321C394.979 160.321 395.375 160.399 395.744 160.554C396.113 160.709 396.435 160.934 396.708 161.23C396.986 161.522 397.202 161.882 397.357 162.311C397.517 162.739 397.597 163.224 397.597 163.767C397.597 164.309 397.519 164.794 397.364 165.223C397.209 165.651 396.995 166.013 396.722 166.31C396.453 166.606 396.132 166.834 395.758 166.993C395.384 167.148 394.979 167.226 394.541 167.226C394.104 167.226 393.693 167.141 393.311 166.973C392.932 166.804 392.6 166.567 392.312 166.262C392.03 165.956 391.807 165.594 391.643 165.175C391.483 164.756 391.403 164.295 391.403 163.794C391.403 163.297 391.485 162.837 391.649 162.413C391.818 161.989 392.046 161.622 392.333 161.312C392.62 161.003 392.953 160.761 393.331 160.588C393.714 160.41 394.122 160.321 394.555 160.321ZM396.038 163.794C396.038 163.438 395.999 163.124 395.922 162.851C395.849 162.577 395.744 162.347 395.607 162.16C395.471 161.969 395.309 161.825 395.122 161.729C394.935 161.629 394.732 161.579 394.514 161.579C394.29 161.579 394.085 161.629 393.898 161.729C393.716 161.825 393.559 161.966 393.427 162.153C393.299 162.34 393.199 162.568 393.126 162.837C393.053 163.101 393.017 163.402 393.017 163.739C393.017 164.076 393.051 164.382 393.119 164.655C393.192 164.924 393.295 165.154 393.427 165.346C393.559 165.537 393.718 165.685 393.905 165.79C394.097 165.895 394.309 165.947 394.541 165.947C394.997 165.947 395.359 165.763 395.628 165.394C395.901 165.024 396.038 164.491 396.038 163.794ZM398.109 160.465H399.846C399.846 160.515 399.837 160.556 399.818 160.588C399.805 160.615 399.789 160.64 399.771 160.663C399.752 160.686 399.734 160.711 399.716 160.738C399.702 160.761 399.695 160.795 399.695 160.841C399.695 160.864 399.695 160.889 399.695 160.916C399.695 160.939 399.7 160.964 399.709 160.991L400.311 165.079L401.124 161.217H402.088L403.011 165.065C403.084 164.591 403.141 164.14 403.182 163.712C403.227 163.279 403.261 162.882 403.284 162.522C403.312 162.158 403.327 161.839 403.332 161.565C403.341 161.287 403.346 161.064 403.346 160.896V160.465H404.829C404.77 160.966 404.704 161.497 404.631 162.058C404.558 162.614 404.478 163.176 404.392 163.746C404.305 164.311 404.214 164.872 404.118 165.428C404.022 165.984 403.924 166.508 403.824 167H402.437L401.582 163.363L400.775 167H399.347L398.109 160.465ZM412.28 158.277H418.706V159.638H416.245V167H414.646V159.638H412.28V158.277ZM422.555 160.321C422.979 160.321 423.375 160.399 423.744 160.554C424.113 160.709 424.435 160.934 424.708 161.23C424.986 161.522 425.202 161.882 425.357 162.311C425.517 162.739 425.597 163.224 425.597 163.767C425.597 164.309 425.519 164.794 425.364 165.223C425.209 165.651 424.995 166.013 424.722 166.31C424.453 166.606 424.132 166.834 423.758 166.993C423.384 167.148 422.979 167.226 422.541 167.226C422.104 167.226 421.693 167.141 421.311 166.973C420.932 166.804 420.6 166.567 420.312 166.262C420.03 165.956 419.807 165.594 419.643 165.175C419.483 164.756 419.403 164.295 419.403 163.794C419.403 163.297 419.485 162.837 419.649 162.413C419.818 161.989 420.046 161.622 420.333 161.312C420.62 161.003 420.953 160.761 421.331 160.588C421.714 160.41 422.122 160.321 422.555 160.321ZM424.038 163.794C424.038 163.438 423.999 163.124 423.922 162.851C423.849 162.577 423.744 162.347 423.607 162.16C423.471 161.969 423.309 161.825 423.122 161.729C422.935 161.629 422.732 161.579 422.514 161.579C422.29 161.579 422.085 161.629 421.898 161.729C421.716 161.825 421.559 161.966 421.427 162.153C421.299 162.34 421.199 162.568 421.126 162.837C421.053 163.101 421.017 163.402 421.017 163.739C421.017 164.076 421.051 164.382 421.119 164.655C421.192 164.924 421.295 165.154 421.427 165.346C421.559 165.537 421.718 165.685 421.905 165.79C422.097 165.895 422.309 165.947 422.541 165.947C422.997 165.947 423.359 165.763 423.628 165.394C423.901 165.024 424.038 164.491 424.038 163.794Z" fill="#666666"/>
</g>
<path d="M136.5 118.691V19.809L215.5 59.309V158.191L136.5 118.691Z" fill="#FBF8F3" fill-opacity="0.8" stroke="#666666"/>
<mask id="path-17-inside-1" fill="white">
<path fill-rule="evenodd" clip-rule="evenodd" d="M194 110.589L158 93V96.0098L156 95V105.801L196 126V115.195L194 114.186V110.589Z"/>
</mask>
<path fill-rule="evenodd" clip-rule="evenodd" d="M194 110.589L158 93V96.0098L156 95V105.801L196 126V115.195L194 114.186V110.589Z" fill="#FBF8F3" fill-opacity="0.8"/>
<path d="M158 93L158.439 92.1015L157 91.3984V93H158ZM194 110.589H195V109.965L194.439 109.691L194 110.589ZM158 96.0098L157.549 96.9024L159 97.6349V96.0098H158ZM156 95L156.451 94.1073L155 93.3749V95H156ZM156 105.801H155V106.417L155.549 106.694L156 105.801ZM196 126L195.549 126.893L197 127.625V126H196ZM196 115.195H197V114.58L196.451 114.303L196 115.195ZM194 114.186H193V114.801L193.549 115.078L194 114.186ZM157.561 93.8985L193.561 111.488L194.439 109.691L158.439 92.1015L157.561 93.8985ZM159 96.0098V93H157V96.0098H159ZM155.549 95.8927L157.549 96.9024L158.451 95.1171L156.451 94.1073L155.549 95.8927ZM157 105.801V95H155V105.801H157ZM196.451 125.107L156.451 104.909L155.549 106.694L195.549 126.893L196.451 125.107ZM195 115.195V126H197V115.195H195ZM193.549 115.078L195.549 116.088L196.451 114.303L194.451 113.293L193.549 115.078ZM193 110.589V114.186H195V110.589H193Z" fill="#666666" mask="url(#path-17-inside-1)"/>
<path d="M185.389 104.26V82.3861C186.445 82.8844 187.333 83.3222 188.223 83.7614L188.225 83.762C189.232 84.2586 190.243 84.7573 191.5 85.3447V107.204L185.389 104.26Z" stroke="#666666"/>
<path d="M177.093 100.06V78.186C178.148 78.6844 179.036 79.1222 179.927 79.5614L179.928 79.562C180.935 80.0586 181.946 80.5573 183.204 81.1447V103.004L177.093 100.06Z" stroke="#666666"/>
<path d="M168.796 95.8599V73.986C169.852 74.4844 170.74 74.9221 171.631 75.3614L171.632 75.362C172.639 75.8586 173.65 76.3572 174.907 76.9447V98.8041L168.796 95.8599Z" stroke="#666666"/>
<path d="M160.5 91.6599V69.786C161.556 70.2844 162.444 70.7222 163.334 71.1614L163.336 71.162C164.343 71.6586 165.354 72.1573 166.611 72.7447V94.6041L160.5 91.6599Z" stroke="#666666"/>
<path d="M158.5 66.2569L175.461 62.5527L193.062 83.3601L158.5 66.2569Z" stroke="#666666"/>
<g opacity="0.8">
<path d="M150.5 39.5C150.5 41.1569 149.157 42.5 147.5 42.5C145.843 42.5 144.5 41.1569 144.5 39.5C144.5 37.8431 145.843 36.5 147.5 36.5C149.157 36.5 150.5 37.8431 150.5 39.5Z" stroke="#666666"/>
<path d="M89.5 9.5C89.5 10.0523 89.0523 10.5 88.5 10.5C87.9477 10.5 87.5 10.0523 87.5 9.5C87.5 8.94772 87.9477 8.5 88.5 8.5C89.0523 8.5 89.5 8.94772 89.5 9.5Z" fill="#666666" stroke="#666666"/>
<path d="M145 38L109 20L89.5 10" stroke="#666666"/>
<path d="M5.40723 5.74512C5.36621 5.73145 5.33887 5.71094 5.3252 5.68359C5.31152 5.65625 5.30241 5.62435 5.29785 5.58789C5.29785 5.54688 5.29557 5.5013 5.29102 5.45117C5.28646 5.40104 5.27279 5.34863 5.25 5.29395C5.11784 4.99316 4.9401 4.75846 4.7168 4.58984C4.49349 4.41667 4.20866 4.33008 3.8623 4.33008C3.58431 4.33008 3.33138 4.40983 3.10352 4.56934C2.88021 4.72428 2.6888 4.94531 2.5293 5.23242C2.36979 5.51953 2.24674 5.86589 2.16016 6.27148C2.07357 6.67708 2.03027 7.12598 2.03027 7.61816C2.03027 8.09668 2.07585 8.53874 2.16699 8.94434C2.2627 9.34538 2.39486 9.69401 2.56348 9.99023C2.7321 10.2865 2.9349 10.5189 3.17188 10.6875C3.40885 10.8516 3.66862 10.9336 3.95117 10.9336C4.28841 10.9336 4.58464 10.8311 4.83984 10.626C5.09505 10.4163 5.3252 10.1315 5.53027 9.77148L6.71973 10.5439C6.3916 11.109 5.99284 11.5352 5.52344 11.8223C5.05404 12.1094 4.54362 12.2529 3.99219 12.2529C3.47721 12.2529 3.00098 12.1618 2.56348 11.9795C2.12598 11.7926 1.74544 11.5101 1.42188 11.1318C1.10286 10.7536 0.852214 10.2796 0.669922 9.70996C0.492188 9.13574 0.40332 8.46126 0.40332 7.68652C0.40332 7.11686 0.451172 6.60645 0.546875 6.15527C0.647135 5.69954 0.781576 5.30078 0.950195 4.95898C1.12337 4.61719 1.32389 4.32552 1.55176 4.08398C1.77962 3.84245 2.02116 3.64648 2.27637 3.49609C2.53613 3.34115 2.80273 3.22949 3.07617 3.16113C3.34961 3.08822 3.61621 3.05176 3.87598 3.05176C4.2041 3.05176 4.51855 3.09961 4.81934 3.19531C5.12012 3.29102 5.39583 3.42773 5.64648 3.60547C5.90169 3.77865 6.12728 3.98828 6.32324 4.23438C6.52376 4.47591 6.68783 4.74479 6.81543 5.04102L5.40723 5.74512ZM8.05273 6.3877C8.72721 5.67676 9.55208 5.32129 10.5273 5.32129C10.9421 5.32129 11.3135 5.3737 11.6416 5.47852C11.9697 5.58333 12.2477 5.7474 12.4756 5.9707C12.7035 6.18945 12.8789 6.46973 13.002 6.81152C13.125 7.14876 13.1865 7.55208 13.1865 8.02148V12H11.6895V11.4121C11.4434 11.6445 11.1494 11.8291 10.8076 11.9658C10.4704 12.1025 10.1309 12.1709 9.78906 12.1709C9.40625 12.1709 9.07357 12.1185 8.79102 12.0137C8.51302 11.9134 8.28288 11.7767 8.10059 11.6035C7.91829 11.4303 7.78158 11.2275 7.69043 10.9951C7.60384 10.7627 7.56055 10.5189 7.56055 10.2637C7.56055 9.92643 7.63118 9.61882 7.77246 9.34082C7.91829 9.05827 8.13021 8.81673 8.4082 8.61621C8.6862 8.41113 9.02799 8.25163 9.43359 8.1377C9.84375 8.02376 10.3154 7.9668 10.8486 7.9668H11.6758C11.6667 7.47005 11.5664 7.11003 11.375 6.88672C11.1836 6.66341 10.8828 6.55176 10.4727 6.55176C9.93945 6.55176 9.39714 6.84115 8.8457 7.41992L8.05273 6.3877ZM11.1426 9.14258C10.7324 9.13346 10.3952 9.15853 10.1309 9.21777C9.86654 9.27246 9.65918 9.34993 9.50879 9.4502C9.3584 9.55046 9.25358 9.66667 9.19434 9.79883C9.13965 9.92643 9.1123 10.054 9.1123 10.1816C9.1123 10.291 9.13737 10.3936 9.1875 10.4893C9.23763 10.585 9.30599 10.6693 9.39258 10.7422C9.47917 10.8105 9.57943 10.8675 9.69336 10.9131C9.81185 10.9541 9.93717 10.9746 10.0693 10.9746C10.2835 10.9746 10.4749 10.9382 10.6436 10.8652C10.8167 10.7878 10.9671 10.6966 11.0947 10.5918C11.2223 10.487 11.3294 10.3776 11.416 10.2637C11.5026 10.1497 11.5664 10.0518 11.6074 9.96973C11.6439 9.90137 11.6712 9.80111 11.6895 9.66895C11.7077 9.53223 11.7168 9.36133 11.7168 9.15625L11.1426 9.14258ZM19.4619 7.59082C19.4255 7.59082 19.3958 7.58171 19.373 7.56348C19.3548 7.54069 19.3389 7.51562 19.3252 7.48828C19.3161 7.45638 19.307 7.42448 19.2979 7.39258C19.2887 7.35612 19.2773 7.32422 19.2637 7.29688C19.1816 7.19661 19.0791 7.10091 18.9561 7.00977C18.833 6.91406 18.6963 6.83203 18.5459 6.76367C18.4001 6.69531 18.2428 6.64062 18.0742 6.59961C17.9102 6.55859 17.7461 6.53809 17.582 6.53809C17.4408 6.53809 17.3063 6.54948 17.1787 6.57227C17.0511 6.59049 16.9372 6.6224 16.8369 6.66797C16.7412 6.71354 16.6637 6.77279 16.6045 6.8457C16.5498 6.91862 16.5225 7.00749 16.5225 7.1123C16.5225 7.23079 16.5521 7.33105 16.6113 7.41309C16.6751 7.49056 16.7686 7.56348 16.8916 7.63184C17.0146 7.69564 17.1696 7.75716 17.3564 7.81641C17.5433 7.87565 17.7643 7.93945 18.0195 8.00781C18.7988 8.22656 19.3708 8.50684 19.7354 8.84863C20.1045 9.19043 20.2891 9.58236 20.2891 10.0244C20.2891 10.3206 20.223 10.6009 20.0908 10.8652C19.9587 11.1296 19.7718 11.3643 19.5303 11.5693C19.2887 11.7699 18.9948 11.9294 18.6484 12.0479C18.3066 12.1663 17.9238 12.2256 17.5 12.2256C16.9486 12.2256 16.4382 12.139 15.9688 11.9658C15.5039 11.7881 15.0664 11.5055 14.6562 11.1182L15.4697 9.64844C15.5244 9.65755 15.5654 9.69173 15.5928 9.75098C15.6201 9.80566 15.6543 9.88314 15.6953 9.9834C15.7682 10.1019 15.873 10.2181 16.0098 10.332C16.1465 10.4414 16.2992 10.5417 16.4678 10.6328C16.6364 10.724 16.8118 10.7969 16.9941 10.8516C17.181 10.9062 17.3587 10.9336 17.5273 10.9336C17.901 10.9336 18.1904 10.8812 18.3955 10.7764C18.6006 10.667 18.7031 10.5052 18.7031 10.291C18.7031 10.1816 18.6803 10.0859 18.6348 10.0039C18.5892 9.92188 18.5163 9.84668 18.416 9.77832C18.3203 9.7054 18.1927 9.63932 18.0332 9.58008C17.8737 9.51628 17.6777 9.4502 17.4453 9.38184C17.3177 9.34538 17.1901 9.30892 17.0625 9.27246C16.9395 9.236 16.8141 9.19271 16.6865 9.14258C16.4313 9.04688 16.2035 8.93978 16.0029 8.82129C15.8024 8.69824 15.6315 8.56152 15.4902 8.41113C15.3535 8.26074 15.2487 8.09212 15.1758 7.90527C15.1029 7.71387 15.0664 7.50195 15.0664 7.26953C15.0664 7.03711 15.1302 6.80469 15.2578 6.57227C15.39 6.33984 15.57 6.13249 15.7979 5.9502C16.0257 5.76335 16.2969 5.61296 16.6113 5.49902C16.9303 5.38053 17.279 5.32129 17.6572 5.32129C18.154 5.32129 18.6143 5.41016 19.0381 5.58789C19.4665 5.76562 19.8584 6.05501 20.2139 6.45605L19.4619 7.59082ZM24.6094 5.32129C24.9967 5.32129 25.359 5.38965 25.6963 5.52637C26.0335 5.66309 26.3275 5.86589 26.5781 6.13477C26.8333 6.39909 27.0339 6.73177 27.1797 7.13281C27.3255 7.5293 27.3984 7.98958 27.3984 8.51367C27.3984 8.6276 27.3939 8.73926 27.3848 8.84863C27.3757 8.95801 27.3665 9.0651 27.3574 9.16992H23.0713C23.1077 9.48438 23.1807 9.75553 23.29 9.9834C23.3994 10.2067 23.5316 10.3936 23.6865 10.5439C23.8415 10.6898 24.0124 10.7992 24.1992 10.8721C24.3906 10.9404 24.5843 10.9746 24.7803 10.9746C25.0765 10.9746 25.3659 10.9085 25.6484 10.7764C25.9355 10.6396 26.1816 10.4414 26.3867 10.1816L27.2549 11.0498C26.5941 11.8337 25.7692 12.2256 24.7803 12.2256C24.3109 12.2256 23.8757 12.1481 23.4746 11.9932C23.0781 11.8382 22.734 11.6149 22.4424 11.3232C22.1553 11.0316 21.9297 10.6761 21.7656 10.2568C21.6016 9.83301 21.5195 9.35449 21.5195 8.82129C21.5195 8.27897 21.597 7.79134 21.752 7.3584C21.9069 6.92546 22.1211 6.55859 22.3945 6.25781C22.6725 5.95703 22.9984 5.72689 23.3721 5.56738C23.7503 5.40332 24.1628 5.32129 24.6094 5.32129ZM25.833 8.02148C25.833 7.81641 25.8011 7.62272 25.7373 7.44043C25.6781 7.25358 25.5915 7.0918 25.4775 6.95508C25.3682 6.8138 25.2314 6.70215 25.0674 6.62012C24.9079 6.53809 24.7279 6.49707 24.5273 6.49707C24.3359 6.49707 24.1582 6.53353 23.9941 6.60645C23.8346 6.67936 23.6934 6.7819 23.5703 6.91406C23.4518 7.04622 23.3538 7.20573 23.2764 7.39258C23.2035 7.57943 23.1533 7.78906 23.126 8.02148H25.833ZM40.332 5.5332C40.2637 5.52865 40.2135 5.51497 40.1816 5.49219C40.1543 5.4694 40.1315 5.43978 40.1133 5.40332C40.0996 5.36686 40.0882 5.32812 40.0791 5.28711C40.07 5.24154 40.0518 5.19824 40.0244 5.15723C39.8695 4.9248 39.653 4.73112 39.375 4.57617C39.097 4.42122 38.7689 4.34375 38.3906 4.34375C38.2266 4.34375 38.0762 4.37109 37.9395 4.42578C37.8073 4.47591 37.6934 4.54655 37.5977 4.6377C37.5065 4.72428 37.4359 4.82682 37.3857 4.94531C37.3356 5.05924 37.3105 5.18001 37.3105 5.30762C37.3105 5.45801 37.3356 5.60156 37.3857 5.73828C37.4404 5.87044 37.5361 6.0026 37.6729 6.13477C37.8141 6.26237 38.0033 6.39225 38.2402 6.52441C38.4818 6.65658 38.7871 6.79785 39.1562 6.94824C39.5983 7.12598 39.9652 7.31283 40.2568 7.50879C40.5531 7.7002 40.7878 7.90527 40.9609 8.12402C41.1387 8.33822 41.2617 8.56836 41.3301 8.81445C41.403 9.05599 41.4395 9.31576 41.4395 9.59375C41.4395 9.92188 41.3825 10.2454 41.2686 10.5645C41.1592 10.8835 40.9792 11.1683 40.7285 11.4189C40.4824 11.665 40.1634 11.8656 39.7715 12.0205C39.3796 12.1755 38.9033 12.2529 38.3428 12.2529C37.7503 12.2529 37.2103 12.1413 36.7227 11.918C36.235 11.6901 35.7907 11.362 35.3896 10.9336L36.1895 9.53906C36.2441 9.55273 36.2852 9.57324 36.3125 9.60059C36.3444 9.62793 36.3717 9.65983 36.3945 9.69629C36.4173 9.73275 36.4401 9.77376 36.4629 9.81934C36.4857 9.86491 36.5153 9.91504 36.5518 9.96973C36.6475 10.0882 36.7568 10.2044 36.8799 10.3184C37.0075 10.4323 37.151 10.5326 37.3105 10.6191C37.4701 10.7057 37.6455 10.7764 37.8369 10.8311C38.0283 10.8812 38.2402 10.9062 38.4727 10.9062C38.901 10.9062 39.236 10.8083 39.4775 10.6123C39.7236 10.4118 39.8467 10.0996 39.8467 9.67578C39.8467 9.54362 39.8193 9.41829 39.7646 9.2998C39.71 9.17676 39.6165 9.05827 39.4844 8.94434C39.3568 8.82585 39.1836 8.70736 38.9648 8.58887C38.7461 8.46582 38.4704 8.33822 38.1377 8.20605C37.7002 8.02832 37.3265 7.84147 37.0166 7.64551C36.7067 7.44954 36.4515 7.23991 36.251 7.0166C36.055 6.79329 35.9115 6.55632 35.8203 6.30566C35.7292 6.05501 35.6836 5.78841 35.6836 5.50586C35.6836 5.16406 35.7542 4.84505 35.8955 4.54883C36.0368 4.2526 36.2327 3.99284 36.4834 3.76953C36.7386 3.54622 37.0394 3.37077 37.3857 3.24316C37.7367 3.11556 38.1217 3.05176 38.541 3.05176C39.0697 3.05176 39.5664 3.16341 40.0312 3.38672C40.4961 3.61003 40.8903 3.93359 41.2139 4.35742L40.332 5.5332ZM44.3789 3.93359L46.1152 3.63965C46.1152 3.75814 46.097 3.85612 46.0605 3.93359C46.0241 4.01107 45.9922 4.09993 45.9648 4.2002L45.8213 5.46484H47.7969V6.73633H45.7666C45.7529 7.07357 45.7301 7.4222 45.6982 7.78223C45.6709 8.14225 45.6572 8.49772 45.6572 8.84863C45.6572 9.2041 45.6641 9.50944 45.6777 9.76465C45.696 10.0199 45.7301 10.2272 45.7803 10.3867C45.835 10.5462 45.9102 10.6647 46.0059 10.7422C46.1061 10.8151 46.236 10.8516 46.3955 10.8516C46.5505 10.8516 46.7555 10.7855 47.0107 10.6533C47.266 10.5166 47.5553 10.3252 47.8789 10.0791L48.3711 11.3711C47.9883 11.6445 47.6123 11.8542 47.2432 12C46.8786 12.1504 46.5163 12.2256 46.1562 12.2256C45.7917 12.2256 45.4772 12.1732 45.2129 12.0684C44.9531 11.9681 44.7367 11.8109 44.5635 11.5967C44.3949 11.3779 44.2695 11.0999 44.1875 10.7627C44.11 10.4255 44.0713 10.0221 44.0713 9.55273C44.0713 9.23828 44.0804 8.85091 44.0986 8.39062C44.1169 7.92578 44.151 7.37435 44.2012 6.73633H42.7861V5.46484H44.2832L44.3789 3.93359ZM55.1729 5.46484V11.2139C55.1729 11.3324 55.1842 11.4577 55.207 11.5898C55.2344 11.722 55.2663 11.8587 55.3027 12H53.7852C53.7305 11.959 53.694 11.8975 53.6758 11.8154C53.6576 11.7334 53.6484 11.6605 53.6484 11.5967V11.3848C53.5527 11.526 53.4365 11.6514 53.2998 11.7607C53.1631 11.8701 53.015 11.9635 52.8555 12.041C52.696 12.1185 52.5319 12.1777 52.3633 12.2188C52.1992 12.2598 52.0397 12.2803 51.8848 12.2803C51.543 12.2803 51.2376 12.2301 50.9688 12.1299C50.6999 12.0296 50.472 11.8701 50.2852 11.6514C50.0983 11.4326 49.9548 11.1501 49.8545 10.8037C49.7588 10.4574 49.7109 10.0404 49.7109 9.55273V5.46484H51.2559V9.55273C51.2559 10.054 51.3402 10.4209 51.5088 10.6533C51.682 10.8812 51.9098 10.9951 52.1924 10.9951C52.3883 10.9951 52.5706 10.9564 52.7393 10.8789C52.9124 10.7969 53.0605 10.6852 53.1836 10.5439C53.3112 10.4027 53.4115 10.234 53.4844 10.0381C53.5573 9.83757 53.5938 9.61882 53.5938 9.38184V5.46484H55.1729ZM62.2754 11.2139C62.2754 11.3278 62.2868 11.4531 62.3096 11.5898C62.3324 11.722 62.362 11.8587 62.3984 12H60.915C60.8558 11.959 60.8171 11.8975 60.7988 11.8154C60.7806 11.7334 60.7715 11.6605 60.7715 11.5967V11.3984C60.6986 11.5306 60.6006 11.6468 60.4775 11.7471C60.359 11.8473 60.2292 11.9316 60.0879 12C59.9466 12.0684 59.7985 12.1208 59.6436 12.1572C59.4932 12.1937 59.3473 12.2119 59.2061 12.2119C58.8232 12.2119 58.4632 12.1413 58.126 12C57.7887 11.8633 57.4925 11.6559 57.2373 11.3779C56.9867 11.0954 56.7861 10.7445 56.6357 10.3252C56.4899 9.90137 56.417 9.40462 56.417 8.83496C56.417 8.28353 56.4922 7.79134 56.6426 7.3584C56.793 6.9209 56.9958 6.55176 57.251 6.25098C57.5062 5.9502 57.8001 5.72005 58.1328 5.56055C58.4701 5.40104 58.8232 5.32129 59.1924 5.32129C59.32 5.32129 59.4521 5.33724 59.5889 5.36914C59.7256 5.40104 59.86 5.44661 59.9922 5.50586C60.1289 5.56055 60.2565 5.62891 60.375 5.71094C60.498 5.79297 60.6074 5.88184 60.7031 5.97754V2.55273H62.4668C62.4668 2.60286 62.4577 2.64388 62.4395 2.67578C62.4212 2.70768 62.4007 2.7373 62.3779 2.76465C62.3597 2.79199 62.3392 2.82161 62.3164 2.85352C62.2936 2.88086 62.2799 2.91504 62.2754 2.95605V11.2139ZM60.7168 8.65723C60.7168 8.38379 60.6986 8.12402 60.6621 7.87793C60.6257 7.62728 60.5618 7.40625 60.4707 7.21484C60.3796 7.02344 60.252 6.87305 60.0879 6.76367C59.9284 6.64974 59.7233 6.59277 59.4727 6.59277C59.2539 6.59277 59.0716 6.62923 58.9258 6.70215C58.7845 6.77051 58.6501 6.87533 58.5225 7.0166C58.1761 7.38574 58.0029 7.98275 58.0029 8.80762C58.0029 9.19954 58.0462 9.52995 58.1328 9.79883C58.224 10.0632 58.3402 10.2773 58.4814 10.4414C58.6227 10.6055 58.7754 10.724 58.9395 10.7969C59.1081 10.8698 59.2721 10.9062 59.4316 10.9062C59.6276 10.9062 59.8031 10.8652 59.958 10.7832C60.1175 10.7012 60.252 10.5713 60.3613 10.3936C60.4753 10.2113 60.5618 9.97884 60.6211 9.69629C60.6849 9.40918 60.7168 9.06283 60.7168 8.65723ZM66.7256 2.53906C66.8577 2.53906 66.9831 2.56413 67.1016 2.61426C67.2201 2.65983 67.3226 2.72363 67.4092 2.80566C67.5003 2.88314 67.571 2.97656 67.6211 3.08594C67.6758 3.19531 67.7031 3.31152 67.7031 3.43457C67.7031 3.55762 67.6758 3.67383 67.6211 3.7832C67.571 3.89258 67.5003 3.98828 67.4092 4.07031C67.3226 4.15234 67.2201 4.21615 67.1016 4.26172C66.9831 4.30729 66.8577 4.33008 66.7256 4.33008C66.5934 4.33008 66.4658 4.30729 66.3428 4.26172C66.2243 4.21615 66.1195 4.15234 66.0283 4.07031C65.9417 3.98828 65.8711 3.89258 65.8164 3.7832C65.7663 3.67383 65.7412 3.55762 65.7412 3.43457C65.7412 3.3252 65.7617 3.2181 65.8027 3.11328C65.8438 3.00391 65.9053 2.9082 65.9873 2.82617C66.0693 2.73958 66.1719 2.67122 66.2949 2.62109C66.418 2.56641 66.5615 2.53906 66.7256 2.53906ZM64.415 5.46484H67.4775V10.7832H68.9199V12H64.3467V10.7832H65.9258V6.68164H64.415V5.46484ZM73.6094 5.32129C73.9967 5.32129 74.359 5.38965 74.6963 5.52637C75.0335 5.66309 75.3275 5.86589 75.5781 6.13477C75.8333 6.39909 76.0339 6.73177 76.1797 7.13281C76.3255 7.5293 76.3984 7.98958 76.3984 8.51367C76.3984 8.6276 76.3939 8.73926 76.3848 8.84863C76.3757 8.95801 76.3665 9.0651 76.3574 9.16992H72.0713C72.1077 9.48438 72.1807 9.75553 72.29 9.9834C72.3994 10.2067 72.5316 10.3936 72.6865 10.5439C72.8415 10.6898 73.0124 10.7992 73.1992 10.8721C73.3906 10.9404 73.5843 10.9746 73.7803 10.9746C74.0765 10.9746 74.3659 10.9085 74.6484 10.7764C74.9355 10.6396 75.1816 10.4414 75.3867 10.1816L76.2549 11.0498C75.5941 11.8337 74.7692 12.2256 73.7803 12.2256C73.3109 12.2256 72.8757 12.1481 72.4746 11.9932C72.0781 11.8382 71.734 11.6149 71.4424 11.3232C71.1553 11.0316 70.9297 10.6761 70.7656 10.2568C70.6016 9.83301 70.5195 9.35449 70.5195 8.82129C70.5195 8.27897 70.597 7.79134 70.752 7.3584C70.9069 6.92546 71.1211 6.55859 71.3945 6.25781C71.6725 5.95703 71.9984 5.72689 72.3721 5.56738C72.7503 5.40332 73.1628 5.32129 73.6094 5.32129ZM74.833 8.02148C74.833 7.81641 74.8011 7.62272 74.7373 7.44043C74.6781 7.25358 74.5915 7.0918 74.4775 6.95508C74.3682 6.8138 74.2314 6.70215 74.0674 6.62012C73.9079 6.53809 73.7279 6.49707 73.5273 6.49707C73.3359 6.49707 73.1582 6.53353 72.9941 6.60645C72.8346 6.67936 72.6934 6.7819 72.5703 6.91406C72.4518 7.04622 72.3538 7.20573 72.2764 7.39258C72.2035 7.57943 72.1533 7.78906 72.126 8.02148H74.833ZM82.4619 7.59082C82.4255 7.59082 82.3958 7.58171 82.373 7.56348C82.3548 7.54069 82.3389 7.51562 82.3252 7.48828C82.3161 7.45638 82.307 7.42448 82.2979 7.39258C82.2887 7.35612 82.2773 7.32422 82.2637 7.29688C82.1816 7.19661 82.0791 7.10091 81.9561 7.00977C81.833 6.91406 81.6963 6.83203 81.5459 6.76367C81.4001 6.69531 81.2428 6.64062 81.0742 6.59961C80.9102 6.55859 80.7461 6.53809 80.582 6.53809C80.4408 6.53809 80.3063 6.54948 80.1787 6.57227C80.0511 6.59049 79.9372 6.6224 79.8369 6.66797C79.7412 6.71354 79.6637 6.77279 79.6045 6.8457C79.5498 6.91862 79.5225 7.00749 79.5225 7.1123C79.5225 7.23079 79.5521 7.33105 79.6113 7.41309C79.6751 7.49056 79.7686 7.56348 79.8916 7.63184C80.0146 7.69564 80.1696 7.75716 80.3564 7.81641C80.5433 7.87565 80.7643 7.93945 81.0195 8.00781C81.7988 8.22656 82.3708 8.50684 82.7354 8.84863C83.1045 9.19043 83.2891 9.58236 83.2891 10.0244C83.2891 10.3206 83.223 10.6009 83.0908 10.8652C82.9587 11.1296 82.7718 11.3643 82.5303 11.5693C82.2887 11.7699 81.9948 11.9294 81.6484 12.0479C81.3066 12.1663 80.9238 12.2256 80.5 12.2256C79.9486 12.2256 79.4382 12.139 78.9688 11.9658C78.5039 11.7881 78.0664 11.5055 77.6562 11.1182L78.4697 9.64844C78.5244 9.65755 78.5654 9.69173 78.5928 9.75098C78.6201 9.80566 78.6543 9.88314 78.6953 9.9834C78.7682 10.1019 78.873 10.2181 79.0098 10.332C79.1465 10.4414 79.2992 10.5417 79.4678 10.6328C79.6364 10.724 79.8118 10.7969 79.9941 10.8516C80.181 10.9062 80.3587 10.9336 80.5273 10.9336C80.901 10.9336 81.1904 10.8812 81.3955 10.7764C81.6006 10.667 81.7031 10.5052 81.7031 10.291C81.7031 10.1816 81.6803 10.0859 81.6348 10.0039C81.5892 9.92188 81.5163 9.84668 81.416 9.77832C81.3203 9.7054 81.1927 9.63932 81.0332 9.58008C80.8737 9.51628 80.6777 9.4502 80.4453 9.38184C80.3177 9.34538 80.1901 9.30892 80.0625 9.27246C79.9395 9.236 79.8141 9.19271 79.6865 9.14258C79.4313 9.04688 79.2035 8.93978 79.0029 8.82129C78.8024 8.69824 78.6315 8.56152 78.4902 8.41113C78.3535 8.26074 78.2487 8.09212 78.1758 7.90527C78.1029 7.71387 78.0664 7.50195 78.0664 7.26953C78.0664 7.03711 78.1302 6.80469 78.2578 6.57227C78.39 6.33984 78.57 6.13249 78.7979 5.9502C79.0257 5.76335 79.2969 5.61296 79.6113 5.49902C79.9303 5.38053 80.279 5.32129 80.6572 5.32129C81.154 5.32129 81.6143 5.41016 82.0381 5.58789C82.4665 5.76562 82.8584 6.05501 83.2139 6.45605L82.4619 7.59082Z" fill="#666666"/>
</g>
</svg>
