<svg width="109" height="118" viewBox="0 0 109 118" fill="none" xmlns="http://www.w3.org/2000/svg">
<path d="M63 2V19.1111C63 21.8112 65.2883 24 68.1111 24H86" stroke="white" stroke-width="3" stroke-miterlimit="10"/>
<path d="M86 47.1262V26.3859C86 25.0698 85.4794 23.8076 84.5528 22.877L65.2121 3.45344C64.2854 2.52282 63.0286 2 61.7181 2H6.94118C4.21224 2 2 4.22171 2 6.96232V111.038C2 113.778 4.21224 116 6.94118 116H81.0588C83.7878 116 86 113.778 86 111.038V63.9626" stroke="white" stroke-width="3" stroke-miterlimit="10"/>
<path d="M98.9456 52L90 42.2205L96.6961 36.0954C98.399 34.5377 101.042 34.6554 102.6 36.3583L105.905 39.9711C107.462 41.674 107.345 44.3172 105.642 45.8749L98.9456 52Z" stroke="white" stroke-width="3" stroke-miterlimit="10"/>
<path d="M99 51.6502L73.5631 74.7917L59.3892 80L59 79.5768L65.0867 65.5756L91.2964 42" stroke="white" stroke-width="3" stroke-miterlimit="10"/>
<path d="M73 73L66 66" stroke="white" stroke-width="3" stroke-miterlimit="10"/>
<path d="M11 59H59" stroke="white" stroke-width="3" stroke-miterlimit="10"/>
<path d="M11 104H59" stroke="white" stroke-width="3" stroke-miterlimit="10"/>
<path d="M11 74H35" stroke="white" stroke-width="3" stroke-miterlimit="10"/>
<path d="M11 88H47" stroke="white" stroke-width="3" stroke-miterlimit="10"/>
</svg>
