<svg width="122" height="116" viewBox="0 0 122 116" fill="none" xmlns="http://www.w3.org/2000/svg">
<path d="M61 0C60.6266 0.0248186 60.3775 0.111953 60.2375 0.210756L3.30417 37.9782C2.80816 38.292 2.58195 38.9363 2.75347 39.4956C2.92498 40.055 3.47911 40.4803 4.06667 40.4651H17.6222V91.7209H4.06667C3.35692 91.7209 2.71118 92.3635 2.71111 93.0698V102.512H1.35556C0.645814 102.512 6.77778e-05 103.154 0 103.86V114.651C6.77778e-05 115.357 0.645814 116 1.35556 116H120.644C121.354 116 122 115.357 122 114.651V103.86C122 103.154 121.354 102.512 120.644 102.512H119.289V93.0698C119.289 92.3635 118.643 91.7209 117.933 91.7209H104.378V40.4651H117.933C118.521 40.4804 119.075 40.055 119.247 39.4956C119.418 38.9363 119.192 38.292 118.696 37.9782L61.7625 0.210756C61.4584 0.000566517 61.2455 0.00667674 61 0ZM61 2.95058L113.485 37.7674H8.51458L61 2.95058ZM20.3333 40.4651H28.4667V91.7209H20.3333V40.4651ZM31.1778 40.4651H42.0222V91.7209H31.1778V40.4651ZM44.7333 40.4651H52.8667V91.7209H44.7333V40.4651ZM55.5778 40.4651H66.4222V91.7209H55.5778V40.4651ZM69.1333 40.4651H77.2667V91.7209H69.1333V40.4651ZM79.9778 40.4651H90.8222V91.7209H79.9778V40.4651ZM93.5333 40.4651H101.667V91.7209H93.5333V40.4651ZM5.42222 94.4186H116.578V102.512H5.42222V94.4186ZM2.71111 105.209H119.289V113.302H2.71111V105.209Z" fill="white"/>
</svg>
