<svg width="121" height="121" viewBox="0 0 121 121" fill="none" xmlns="http://www.w3.org/2000/svg">
<path d="M110.363 0H10.6374C4.82005 0 0 4.66025 0 10.652V110.348C0 116.173 4.65385 121 10.6374 121H110.363C116.18 121 121 116.34 121 110.348V10.652C120.834 4.82668 116.18 0 110.363 0ZM117.51 110.348C117.51 114.343 114.185 117.671 110.196 117.671H10.6374C6.64835 117.671 3.32418 114.343 3.32418 110.348V10.652C3.32418 6.6575 6.64835 3.32875 10.6374 3.32875H110.363C114.352 3.32875 117.676 6.6575 117.676 10.652V110.348H117.51Z" fill="white"/>
<path d="M100.167 57.6878C99.6674 57.3581 99.0011 57.3581 98.5013 57.6878L91.8382 61.4794V29.828C91.8382 29.6632 91.8382 29.4983 91.6716 29.3335C91.6716 29.3335 91.6716 29.3335 91.6716 29.1686C91.6716 29.1686 91.6716 29.0038 91.505 29.0038L84.3422 18.6182C83.6759 17.7939 82.1767 17.7939 81.6769 18.6182L74.3475 28.8389C74.3475 28.8389 74.3475 29.0038 74.1809 29.0038C74.1809 29.0038 74.1809 29.0038 74.1809 29.1686C74.1809 29.3335 74.0143 29.4983 74.0143 29.6632V71.7001L66.5183 76.316C66.5183 75.162 66.5183 73.8432 66.5183 72.5244C66.5183 70.711 66.3517 68.8977 66.3517 67.0843C66.3517 59.9957 65.1857 52.4126 63.0202 48.2913C64.3528 48.2913 65.3523 47.1374 65.3523 45.9834V43.0161C65.3523 41.6973 64.3528 40.7082 63.0202 40.7082C65.3523 39.0597 66.5183 36.0924 66.3517 32.136C65.852 21.5855 59.6886 18.6182 59.3554 18.4533C58.5226 18.1236 57.6897 18.4533 57.1899 19.1127C55.3576 22.2449 49.5273 32.6305 50.6934 36.2572C51.1931 38.0706 52.3592 39.5542 54.0249 40.5433C52.6923 40.5433 51.6928 41.6973 51.6928 42.8513V45.8186C51.6928 47.1374 52.6923 48.1265 54.0249 48.1265C51.6928 52.2477 50.3602 59.666 50.3602 66.9195C50.3602 69.0625 50.1936 71.2056 50.1936 73.1838C50.0271 77.9645 49.8605 82.0857 51.0265 85.0531L43.5305 89.504V24.7177C43.5305 23.7286 42.8642 23.0692 41.8647 23.0692H25.3735C24.374 23.0692 23.7077 23.7286 23.7077 24.7177V100.879L21.8753 102.033C21.209 102.362 20.8759 103.187 21.0424 103.846C21.209 104.505 21.8753 105 22.7082 105H99.3342C100.334 105 101 104.341 101 103.351V59.1715C101 58.6769 100.667 58.0175 100.167 57.6878ZM40.1989 26.3662V90.1634L27.0393 98.406V90.9877H29.2048C30.2043 90.9877 30.8706 90.3283 30.8706 89.3392C30.8706 88.3501 30.2043 87.6907 29.2048 87.6907H27.0393V84.0639H29.2048C30.2043 84.0639 30.8706 83.4045 30.8706 82.4154C30.8706 81.4263 30.2043 80.7669 29.2048 80.7669H27.0393V77.1402H31.7035C32.7029 77.1402 33.3692 76.4808 33.3692 75.4917C33.3692 74.5026 32.7029 73.8432 31.7035 73.8432H27.0393V70.2165H29.2048C30.2043 70.2165 30.8706 69.5571 30.8706 68.568C30.8706 67.5789 30.2043 66.9195 29.2048 66.9195H27.0393V63.2927H29.2048C30.2043 63.2927 30.8706 62.6333 30.8706 61.6442C30.8706 60.6551 30.2043 59.9957 29.2048 59.9957H27.0393V56.5339H31.7035C32.7029 56.5339 33.3692 55.8745 33.3692 54.8854C33.3692 53.8963 32.7029 53.2369 31.7035 53.2369H27.0393V49.6101H29.2048C30.2043 49.6101 30.8706 48.9507 30.8706 47.9616C30.8706 46.9725 30.2043 46.3131 29.2048 46.3131H27.0393V42.6864H29.2048C30.2043 42.6864 30.8706 42.027 30.8706 41.0379C30.8706 40.0488 30.2043 39.3894 29.2048 39.3894H27.0393V35.7627H31.7035C32.7029 35.7627 33.3692 35.1033 33.3692 34.1142C33.3692 33.1251 32.7029 32.4657 31.7035 32.4657H27.0393V26.2013H40.1989V26.3662ZM84.6753 65.7655V31.4765H88.5066V63.4576L84.6753 65.7655ZM83.0096 22.5746L87.0074 28.3444H78.8451L83.0096 22.5746ZM77.3459 31.4765H81.3438V67.7437L77.3459 70.0516V31.4765ZM55.0244 43.8404H61.8541V44.9943H55.0244V43.8404ZM59.1889 22.2449C60.5215 23.5637 62.687 26.3662 63.0202 32.136C63.1867 34.6087 62.687 37.576 59.8552 38.4003C58.6891 38.73 57.3565 38.5651 56.1905 38.0706C55.0244 37.4112 54.1915 36.4221 53.8584 35.2681C53.5252 33.7845 56.1905 27.685 59.1889 22.2449ZM53.6918 73.3486C53.8584 71.3704 53.8584 69.2274 53.8584 66.9195C53.8584 54.7205 57.1899 48.1265 58.5226 48.1265C59.8552 48.1265 62.8536 54.5557 62.8536 66.9195C62.8536 68.8977 62.8536 70.711 63.0202 72.5244C63.0202 74.5026 63.1867 76.316 63.0202 77.7996C63.0202 77.9645 63.0202 77.9645 63.0202 78.1293L54.0249 83.4045C53.3586 81.0966 53.5252 77.4699 53.6918 73.3486ZM97.6684 101.868H28.8716L76.513 74.3377L91.0053 65.9304L97.6684 62.1388V101.868Z" fill="white"/>
<path d="M88.1679 76.2512C87.6687 75.9163 87.003 75.9163 86.5038 76.2512L61.8745 90.9861C61.2088 91.3209 60.876 92.1581 61.0424 92.8279C61.2088 93.4977 61.8745 94 62.7066 94H87.3359C88.3343 94 89 93.3302 89 92.3256V77.5907C89 77.0884 88.6672 76.4186 88.1679 76.2512ZM85.6717 90.6512H68.6975L85.6717 80.4372V90.6512Z" fill="white"/>
</svg>
